<svg width="3" height="12" viewBox="0 0 3 12" fill="none" xmlns="http://www.w3.org/2000/svg">
<path d="M1.33663 3.40183C2.06996 3.40183 2.66996 2.80184 2.66996 2.0685C2.66996 1.33517 2.06996 0.735168 1.33663 0.735168C0.603296 0.735168 0.0032959 1.33517 0.0032959 2.0685C0.0032959 2.80184 0.603296 3.40183 1.33663 3.40183ZM1.33663 4.73517C0.603296 4.73517 0.0032959 5.33517 0.0032959 6.0685C0.0032959 6.80183 0.603296 7.40183 1.33663 7.40183C2.06996 7.40183 2.66996 6.80183 2.66996 6.0685C2.66996 5.33517 2.06996 4.73517 1.33663 4.73517ZM1.33663 8.73517C0.603296 8.73517 0.0032959 9.33517 0.0032959 10.0685C0.0032959 10.8018 0.603296 11.4018 1.33663 11.4018C2.06996 11.4018 2.66996 10.8018 2.66996 10.0685C2.66996 9.33517 2.06996 8.73517 1.33663 8.73517Z" fill="#046AF3"/>
</svg>
